<mxfile host="65bd71144e">
    <diagram name="Page-1" id="sSaSapcUd3d00tL-vF7X">
        <mxGraphModel dx="-224" dy="164" grid="0" gridSize="10" guides="1" tooltips="1" connect="1" arrows="1" fold="1" page="0" pageScale="1" pageWidth="1100" pageHeight="850" math="0" shadow="0">
            <root>
                <mxCell id="0"/>
                <mxCell id="1" parent="0"/>
                <mxCell id="g0mLWEBlBg2iRlSw4-VQ-2" value="&lt;font&gt;USER&lt;/font&gt;" style="rounded=0;whiteSpace=wrap;html=1;fillColor=none;fontSize=11;" parent="1" vertex="1">
                    <mxGeometry x="692" y="315.5" width="90" height="40" as="geometry"/>
                </mxCell>
                <mxCell id="g0mLWEBlBg2iRlSw4-VQ-3" value="" style="ellipse;whiteSpace=wrap;html=1;aspect=fixed;fillColor=light-dark(#FFFFFF,#FFFFFF);fontSize=11;" parent="1" vertex="1">
                    <mxGeometry x="661" y="295.5" width="10" height="10" as="geometry"/>
                </mxCell>
                <mxCell id="g0mLWEBlBg2iRlSw4-VQ-4" value="id" style="text;html=1;align=center;verticalAlign=middle;resizable=0;points=[];autosize=1;strokeColor=none;fillColor=none;fontSize=11;" parent="1" vertex="1">
                    <mxGeometry x="637" y="285.5" width="30" height="30" as="geometry"/>
                </mxCell>
                <mxCell id="g0mLWEBlBg2iRlSw4-VQ-5" value="email" style="text;html=1;align=center;verticalAlign=middle;resizable=0;points=[];autosize=1;strokeColor=none;fillColor=none;fontSize=11;" parent="1" vertex="1">
                    <mxGeometry x="618" y="302.5" width="50" height="30" as="geometry"/>
                </mxCell>
                <mxCell id="g0mLWEBlBg2iRlSw4-VQ-6" value="" style="endArrow=none;html=1;rounded=0;entryX=1;entryY=0.5;entryDx=0;entryDy=0;fontSize=11;" parent="1" target="g0mLWEBlBg2iRlSw4-VQ-3" edge="1">
                    <mxGeometry width="50" height="50" relative="1" as="geometry">
                        <mxPoint x="692" y="315.5" as="sourcePoint"/>
                        <mxPoint x="647.0000000000045" y="320.5" as="targetPoint"/>
                        <Array as="points">
                            <mxPoint x="677" y="300.5"/>
                        </Array>
                    </mxGeometry>
                </mxCell>
                <mxCell id="g0mLWEBlBg2iRlSw4-VQ-7" value="" style="endArrow=none;html=1;rounded=0;entryX=1;entryY=0.5;entryDx=0;entryDy=0;exitX=0;exitY=0.5;exitDx=0;exitDy=0;fontSize=11;" parent="1" edge="1">
                    <mxGeometry width="50" height="50" relative="1" as="geometry">
                        <mxPoint x="692" y="318.3" as="sourcePoint"/>
                        <mxPoint x="662" y="318.3" as="targetPoint"/>
                    </mxGeometry>
                </mxCell>
                <mxCell id="g0mLWEBlBg2iRlSw4-VQ-8" value="password" style="text;html=1;align=center;verticalAlign=middle;resizable=0;points=[];autosize=1;strokeColor=none;fillColor=none;fontSize=11;" parent="1" vertex="1">
                    <mxGeometry x="598" y="355.5" width="70" height="30" as="geometry"/>
                </mxCell>
                <mxCell id="g0mLWEBlBg2iRlSw4-VQ-9" value="" style="ellipse;whiteSpace=wrap;html=1;aspect=fixed;fillColor=light-dark(#FFFFFF,#FFFFFF);fontSize=11;" parent="1" vertex="1">
                    <mxGeometry x="661" y="313.5" width="10" height="10" as="geometry"/>
                </mxCell>
                <mxCell id="g0mLWEBlBg2iRlSw4-VQ-10" value="" style="endArrow=none;html=1;rounded=0;entryX=-0.006;entryY=0.889;entryDx=0;entryDy=0;exitX=1;exitY=0.5;exitDx=0;exitDy=0;fontSize=11;entryPerimeter=0;" parent="1" source="g0mLWEBlBg2iRlSw4-VQ-12" target="g0mLWEBlBg2iRlSw4-VQ-2" edge="1">
                    <mxGeometry width="50" height="50" relative="1" as="geometry">
                        <mxPoint x="682" y="363.5" as="sourcePoint"/>
                        <mxPoint x="702" y="378.5" as="targetPoint"/>
                        <Array as="points">
                            <mxPoint x="677" y="353.5"/>
                        </Array>
                    </mxGeometry>
                </mxCell>
                <mxCell id="g0mLWEBlBg2iRlSw4-VQ-11" value="name" style="text;html=1;align=center;verticalAlign=middle;resizable=0;points=[];autosize=1;strokeColor=none;fillColor=none;fontSize=11;" parent="1" vertex="1">
                    <mxGeometry x="609" y="323.5" width="46" height="25" as="geometry"/>
                </mxCell>
                <mxCell id="g0mLWEBlBg2iRlSw4-VQ-12" value="" style="ellipse;whiteSpace=wrap;html=1;aspect=fixed;fillColor=none;fontSize=11;" parent="1" vertex="1">
                    <mxGeometry x="661" y="348.5" width="10" height="10" as="geometry"/>
                </mxCell>
                <mxCell id="g0mLWEBlBg2iRlSw4-VQ-13" value="" style="endArrow=none;html=1;rounded=0;entryX=1;entryY=0.5;entryDx=0;entryDy=0;exitX=0;exitY=0.5;exitDx=0;exitDy=0;fontSize=11;" parent="1" source="g0mLWEBlBg2iRlSw4-VQ-2" target="g0mLWEBlBg2iRlSw4-VQ-14" edge="1">
                    <mxGeometry width="50" height="50" relative="1" as="geometry">
                        <mxPoint x="691.6400000000001" y="340.5" as="sourcePoint"/>
                        <mxPoint x="666.9999999999875" y="340.5" as="targetPoint"/>
                    </mxGeometry>
                </mxCell>
                <mxCell id="g0mLWEBlBg2iRlSw4-VQ-14" value="" style="ellipse;whiteSpace=wrap;html=1;aspect=fixed;fillColor=none;fontSize=11;" parent="1" vertex="1">
                    <mxGeometry x="661" y="330.5" width="10" height="10" as="geometry"/>
                </mxCell>
                <mxCell id="g0mLWEBlBg2iRlSw4-VQ-15" value="&lt;font style=&quot;vertical-align: inherit;&quot;&gt;&lt;font style=&quot;vertical-align: inherit;&quot;&gt;&lt;font style=&quot;vertical-align: inherit;&quot;&gt;&lt;font style=&quot;vertical-align: inherit;&quot;&gt;last_name&lt;/font&gt;&lt;/font&gt;&lt;/font&gt;&lt;/font&gt;" style="text;html=1;align=center;verticalAlign=middle;resizable=0;points=[];autosize=1;strokeColor=none;fillColor=none;fontSize=11;" parent="1" vertex="1">
                    <mxGeometry x="596" y="338.5" width="70" height="30" as="geometry"/>
                </mxCell>
                <mxCell id="g0mLWEBlBg2iRlSw4-VQ-16" value="" style="endArrow=none;html=1;rounded=0;entryX=0;entryY=1;entryDx=0;entryDy=0;exitX=1;exitY=0.5;exitDx=0;exitDy=0;fontSize=11;" parent="1" source="g0mLWEBlBg2iRlSw4-VQ-17" target="g0mLWEBlBg2iRlSw4-VQ-2" edge="1">
                    <mxGeometry width="50" height="50" relative="1" as="geometry">
                        <mxPoint x="682" y="380.5" as="sourcePoint"/>
                        <mxPoint x="691" y="368.5" as="targetPoint"/>
                        <Array as="points">
                            <mxPoint x="677" y="370.5"/>
                        </Array>
                    </mxGeometry>
                </mxCell>
                <mxCell id="g0mLWEBlBg2iRlSw4-VQ-17" value="" style="ellipse;whiteSpace=wrap;html=1;aspect=fixed;fillColor=none;fontSize=11;" parent="1" vertex="1">
                    <mxGeometry x="661" y="365.5" width="10" height="10" as="geometry"/>
                </mxCell>
                <mxCell id="g0mLWEBlBg2iRlSw4-VQ-18" value="" style="endArrow=none;html=1;rounded=0;entryX=0.092;entryY=0.996;entryDx=0;entryDy=0;exitX=1;exitY=0.5;exitDx=0;exitDy=0;fontSize=11;entryPerimeter=0;" parent="1" source="g0mLWEBlBg2iRlSw4-VQ-19" target="g0mLWEBlBg2iRlSw4-VQ-2" edge="1">
                    <mxGeometry width="50" height="50" relative="1" as="geometry">
                        <mxPoint x="682" y="397.5" as="sourcePoint"/>
                        <mxPoint x="692" y="372.5" as="targetPoint"/>
                        <Array as="points">
                            <mxPoint x="677" y="387.5"/>
                        </Array>
                    </mxGeometry>
                </mxCell>
                <mxCell id="g0mLWEBlBg2iRlSw4-VQ-19" value="" style="ellipse;whiteSpace=wrap;html=1;aspect=fixed;fillColor=none;fontSize=11;" parent="1" vertex="1">
                    <mxGeometry x="661" y="382.5" width="10" height="10" as="geometry"/>
                </mxCell>
                <mxCell id="g0mLWEBlBg2iRlSw4-VQ-20" value="&lt;font style=&quot;vertical-align: inherit;&quot;&gt;&lt;font style=&quot;vertical-align: inherit;&quot;&gt;rol&lt;/font&gt;&lt;/font&gt;" style="text;html=1;align=center;verticalAlign=middle;resizable=0;points=[];autosize=1;strokeColor=none;fillColor=none;fontSize=11;" parent="1" vertex="1">
                    <mxGeometry x="629" y="372.5" width="40" height="30" as="geometry"/>
                </mxCell>
                <mxCell id="g0mLWEBlBg2iRlSw4-VQ-21" value="&lt;font&gt;&lt;font style=&quot;vertical-align: inherit;&quot;&gt;&lt;font style=&quot;vertical-align: inherit;&quot;&gt;GYM&lt;/font&gt;&lt;/font&gt;&lt;/font&gt;" style="rounded=0;whiteSpace=wrap;html=1;fillColor=none;fontSize=11;" parent="1" vertex="1">
                    <mxGeometry x="1007" y="315.5" width="90" height="40" as="geometry"/>
                </mxCell>
                <mxCell id="g0mLWEBlBg2iRlSw4-VQ-23" value="" style="ellipse;whiteSpace=wrap;html=1;aspect=fixed;fillColor=light-dark(#FFFFFF,#FFFFFF);fontSize=11;" parent="1" vertex="1">
                    <mxGeometry x="992" y="295.5" width="10" height="10" as="geometry"/>
                </mxCell>
                <mxCell id="g0mLWEBlBg2iRlSw4-VQ-24" value="" style="endArrow=none;html=1;rounded=0;entryX=1;entryY=1;entryDx=0;entryDy=0;fontSize=11;exitX=0;exitY=0;exitDx=0;exitDy=0;" parent="1" source="g0mLWEBlBg2iRlSw4-VQ-21" target="g0mLWEBlBg2iRlSw4-VQ-23" edge="1">
                    <mxGeometry width="50" height="50" relative="1" as="geometry">
                        <mxPoint x="1007" y="315.5" as="sourcePoint"/>
                        <mxPoint x="962.0000000000045" y="320.5" as="targetPoint"/>
                        <Array as="points">
                            <mxPoint x="1007" y="308"/>
                        </Array>
                    </mxGeometry>
                </mxCell>
                <mxCell id="g0mLWEBlBg2iRlSw4-VQ-25" value="&lt;font style=&quot;vertical-align: inherit;&quot;&gt;&lt;font style=&quot;vertical-align: inherit;&quot;&gt;id&lt;/font&gt;&lt;/font&gt;" style="text;html=1;align=right;verticalAlign=middle;resizable=0;points=[];autosize=1;strokeColor=none;fillColor=none;" parent="1" vertex="1">
                    <mxGeometry x="960" y="285.5" width="30" height="30" as="geometry"/>
                </mxCell>
                <mxCell id="g0mLWEBlBg2iRlSw4-VQ-26" value="" style="endArrow=none;html=1;rounded=0;entryX=0.5;entryY=1;entryDx=0;entryDy=0;fontSize=11;exitX=0.413;exitY=-0.007;exitDx=0;exitDy=0;exitPerimeter=0;" parent="1" target="g0mLWEBlBg2iRlSw4-VQ-27" edge="1">
                    <mxGeometry width="50" height="50" relative="1" as="geometry">
                        <mxPoint x="1054.17" y="315.22" as="sourcePoint"/>
                        <mxPoint x="1054.4999999999875" y="292.5" as="targetPoint"/>
                    </mxGeometry>
                </mxCell>
                <mxCell id="g0mLWEBlBg2iRlSw4-VQ-27" value="" style="ellipse;whiteSpace=wrap;html=1;aspect=fixed;fillColor=none;fontSize=11;" parent="1" vertex="1">
                    <mxGeometry x="1049" y="256.5" width="10" height="10" as="geometry"/>
                </mxCell>
                <mxCell id="g0mLWEBlBg2iRlSw4-VQ-28" value="&lt;font style=&quot;vertical-align: inherit;&quot;&gt;&lt;font style=&quot;vertical-align: inherit;&quot;&gt;name&lt;/font&gt;&lt;/font&gt;" style="text;html=1;align=right;verticalAlign=middle;resizable=0;points=[];autosize=1;strokeColor=none;fillColor=none;" parent="1" vertex="1">
                    <mxGeometry x="980" y="256.5" width="50" height="30" as="geometry"/>
                </mxCell>
                <mxCell id="g0mLWEBlBg2iRlSw4-VQ-30" value="" style="endArrow=none;html=1;rounded=0;entryX=0.5;entryY=1;entryDx=0;entryDy=0;fontSize=11;exitX=0.413;exitY=-0.007;exitDx=0;exitDy=0;exitPerimeter=0;" parent="1" target="g0mLWEBlBg2iRlSw4-VQ-31" edge="1">
                    <mxGeometry width="50" height="50" relative="1" as="geometry">
                        <mxPoint x="1036" y="315.5" as="sourcePoint"/>
                        <mxPoint x="1036.4999999999875" y="292.5" as="targetPoint"/>
                    </mxGeometry>
                </mxCell>
                <mxCell id="g0mLWEBlBg2iRlSw4-VQ-31" value="" style="ellipse;whiteSpace=wrap;html=1;aspect=fixed;fillColor=none;fontSize=11;" parent="1" vertex="1">
                    <mxGeometry x="1031" y="268.5" width="10" height="10" as="geometry"/>
                </mxCell>
                <mxCell id="g0mLWEBlBg2iRlSw4-VQ-32" value="&lt;font style=&quot;vertical-align: inherit;&quot;&gt;&lt;font style=&quot;vertical-align: inherit;&quot;&gt;address&lt;/font&gt;&lt;/font&gt;" style="text;html=1;align=right;verticalAlign=middle;resizable=0;points=[];autosize=1;strokeColor=none;fillColor=none;" parent="1" vertex="1">
                    <mxGeometry x="978" y="243.5" width="70" height="30" as="geometry"/>
                </mxCell>
                <mxCell id="g0mLWEBlBg2iRlSw4-VQ-33" value="" style="ellipse;whiteSpace=wrap;html=1;aspect=fixed;fillColor=light-dark(#FFFFFF,#FFFFFF);fontSize=11;" parent="1" vertex="1">
                    <mxGeometry x="1011" y="280.5" width="10" height="10" as="geometry"/>
                </mxCell>
                <mxCell id="g0mLWEBlBg2iRlSw4-VQ-34" value="" style="endArrow=none;html=1;rounded=0;entryX=0.5;entryY=1;entryDx=0;entryDy=0;fontSize=11;" parent="1" target="g0mLWEBlBg2iRlSw4-VQ-33" edge="1">
                    <mxGeometry width="50" height="50" relative="1" as="geometry">
                        <mxPoint x="1016" y="315.5" as="sourcePoint"/>
                        <mxPoint x="971.0000000000045" y="320.5" as="targetPoint"/>
                    </mxGeometry>
                </mxCell>
                <mxCell id="g0mLWEBlBg2iRlSw4-VQ-35" value="&lt;font style=&quot;vertical-align: inherit;&quot;&gt;&lt;font style=&quot;vertical-align: inherit;&quot;&gt;&lt;font style=&quot;vertical-align: inherit;&quot;&gt;&lt;font style=&quot;vertical-align: inherit;&quot;&gt;phone&lt;/font&gt;&lt;/font&gt;&lt;/font&gt;&lt;/font&gt;" style="text;html=1;align=right;verticalAlign=middle;resizable=0;points=[];autosize=1;strokeColor=none;fillColor=none;" parent="1" vertex="1">
                    <mxGeometry x="950" y="268.5" width="60" height="30" as="geometry"/>
                </mxCell>
                <mxCell id="g0mLWEBlBg2iRlSw4-VQ-36" value="&lt;font style=&quot;vertical-align: inherit;&quot;&gt;&lt;font style=&quot;vertical-align: inherit;&quot;&gt;(0,1)&lt;/font&gt;&lt;/font&gt;" style="text;html=1;align=center;verticalAlign=middle;resizable=0;points=[];autosize=1;strokeColor=none;fillColor=none;fontSize=10;rotation=90;" parent="1" vertex="1">
                    <mxGeometry x="1004" y="288.5" width="40" height="30" as="geometry"/>
                </mxCell>
                <mxCell id="g0mLWEBlBg2iRlSw4-VQ-39" value="" style="endArrow=none;html=1;rounded=0;entryX=0;entryY=0.5;entryDx=0;entryDy=0;exitX=1;exitY=0.5;exitDx=0;exitDy=0;" parent="1" source="g0mLWEBlBg2iRlSw4-VQ-2" target="g0mLWEBlBg2iRlSw4-VQ-40" edge="1">
                    <mxGeometry width="50" height="50" relative="1" as="geometry">
                        <mxPoint x="805" y="365.5" as="sourcePoint"/>
                        <mxPoint x="855" y="315.5" as="targetPoint"/>
                    </mxGeometry>
                </mxCell>
                <mxCell id="g0mLWEBlBg2iRlSw4-VQ-40" value="&lt;font style=&quot;vertical-align: inherit;&quot;&gt;&lt;font style=&quot;vertical-align: inherit;&quot;&gt;&lt;font style=&quot;vertical-align: inherit;&quot;&gt;&lt;font style=&quot;vertical-align: inherit;&quot;&gt;manages&lt;/font&gt;&lt;/font&gt;&lt;/font&gt;&lt;/font&gt;" style="shape=rhombus;perimeter=rhombusPerimeter;whiteSpace=wrap;html=1;align=center;fillColor=none;fontSize=11;" parent="1" vertex="1">
                    <mxGeometry x="843" y="312.5" width="100" height="45" as="geometry"/>
                </mxCell>
                <mxCell id="g0mLWEBlBg2iRlSw4-VQ-42" value="" style="endArrow=none;html=1;rounded=0;entryX=0;entryY=0.5;entryDx=0;entryDy=0;exitX=1;exitY=0.5;exitDx=0;exitDy=0;" parent="1" target="g0mLWEBlBg2iRlSw4-VQ-21" edge="1">
                    <mxGeometry width="50" height="50" relative="1" as="geometry">
                        <mxPoint x="941" y="335" as="sourcePoint"/>
                        <mxPoint x="951" y="385.5" as="targetPoint"/>
                    </mxGeometry>
                </mxCell>
                <mxCell id="g0mLWEBlBg2iRlSw4-VQ-44" value="&lt;font style=&quot;font-size: 11px;&quot;&gt;(1,1)&lt;/font&gt;" style="text;html=1;align=center;verticalAlign=middle;resizable=0;points=[];autosize=1;strokeColor=none;fillColor=none;" parent="1" vertex="1">
                    <mxGeometry x="773" y="328.5" width="50" height="30" as="geometry"/>
                </mxCell>
                <mxCell id="g0mLWEBlBg2iRlSw4-VQ-45" value="&lt;font style=&quot;font-size: 11px;&quot;&gt;(1,1)&lt;/font&gt;" style="text;html=1;align=center;verticalAlign=middle;resizable=0;points=[];autosize=1;strokeColor=none;fillColor=none;" parent="1" vertex="1">
                    <mxGeometry x="965" y="328.5" width="50" height="30" as="geometry"/>
                </mxCell>
                <mxCell id="U3JI14pHx9eP_fwrzk_K-1" value="&lt;font&gt;&lt;font style=&quot;vertical-align: inherit;&quot;&gt;&lt;font style=&quot;vertical-align: inherit;&quot;&gt;MEMBERSHIP_TYPE&lt;/font&gt;&lt;/font&gt;&lt;/font&gt;" style="rounded=0;whiteSpace=wrap;html=1;fillColor=none;fontSize=11;" parent="1" vertex="1">
                    <mxGeometry x="819" y="498.5" width="120" height="40" as="geometry"/>
                </mxCell>
                <mxCell id="U3JI14pHx9eP_fwrzk_K-27" value="&lt;font&gt;&lt;font style=&quot;vertical-align: inherit;&quot;&gt;&lt;font style=&quot;vertical-align: inherit;&quot;&gt;MEMBERSHIP&lt;/font&gt;&lt;/font&gt;&lt;/font&gt;" style="rounded=0;whiteSpace=wrap;html=1;fillColor=none;fontSize=11;" parent="1" vertex="1">
                    <mxGeometry x="1166" y="497.5" width="90" height="40" as="geometry"/>
                </mxCell>
                <mxCell id="U3JI14pHx9eP_fwrzk_K-28" value="&lt;font style=&quot;vertical-align: inherit;&quot;&gt;&lt;font style=&quot;vertical-align: inherit;&quot;&gt;&lt;font style=&quot;vertical-align: inherit;&quot;&gt;&lt;font style=&quot;vertical-align: inherit;&quot;&gt;has&lt;/font&gt;&lt;/font&gt;&lt;/font&gt;&lt;/font&gt;" style="shape=rhombus;perimeter=rhombusPerimeter;whiteSpace=wrap;html=1;align=center;fillColor=none;fontSize=11;" parent="1" vertex="1">
                    <mxGeometry x="1178" y="312.5" width="100" height="45" as="geometry"/>
                </mxCell>
                <mxCell id="U3JI14pHx9eP_fwrzk_K-30" value="" style="endArrow=none;html=1;rounded=0;entryX=0;entryY=0.5;entryDx=0;entryDy=0;exitX=1;exitY=0.5;exitDx=0;exitDy=0;" parent="1" source="g0mLWEBlBg2iRlSw4-VQ-21" target="U3JI14pHx9eP_fwrzk_K-28" edge="1">
                    <mxGeometry width="50" height="50" relative="1" as="geometry">
                        <mxPoint x="1046" y="401.5" as="sourcePoint"/>
                        <mxPoint x="1045" y="364.5" as="targetPoint"/>
                    </mxGeometry>
                </mxCell>
                <mxCell id="U3JI14pHx9eP_fwrzk_K-31" value="" style="endArrow=none;html=1;rounded=0;entryX=0.75;entryY=1;entryDx=0;entryDy=0;exitX=0;exitY=0.5;exitDx=0;exitDy=0;" parent="1" source="BdBJVadAsHIX_H4UZDUO-35" target="g0mLWEBlBg2iRlSw4-VQ-21" edge="1">
                    <mxGeometry width="50" height="50" relative="1" as="geometry">
                        <mxPoint x="1055" y="484.5" as="sourcePoint"/>
                        <mxPoint x="1197" y="334.5" as="targetPoint"/>
                        <Array as="points">
                            <mxPoint x="1075" y="420.5"/>
                        </Array>
                    </mxGeometry>
                </mxCell>
                <mxCell id="U3JI14pHx9eP_fwrzk_K-33" value="&lt;font&gt;&lt;font style=&quot;vertical-align: inherit;&quot;&gt;&lt;font style=&quot;vertical-align: inherit;&quot;&gt;MEMBER&lt;/font&gt;&lt;/font&gt;&lt;/font&gt;" style="rounded=0;whiteSpace=wrap;html=1;fillColor=none;fontSize=11;" parent="1" vertex="1">
                    <mxGeometry x="1416" y="314.5" width="90" height="40" as="geometry"/>
                </mxCell>
                <mxCell id="U3JI14pHx9eP_fwrzk_K-54" value="" style="ellipse;whiteSpace=wrap;html=1;aspect=fixed;fillColor=light-dark(#FFFFFF,#FFFFFF);fontSize=11;" parent="1" vertex="1">
                    <mxGeometry x="1534.5" y="290.5" width="10" height="10" as="geometry"/>
                </mxCell>
                <mxCell id="U3JI14pHx9eP_fwrzk_K-55" value="id" style="text;html=1;align=left;verticalAlign=middle;resizable=0;points=[];autosize=1;strokeColor=none;fillColor=none;fontSize=11;" parent="1" vertex="1">
                    <mxGeometry x="1547" y="282.5" width="30" height="30" as="geometry"/>
                </mxCell>
                <mxCell id="U3JI14pHx9eP_fwrzk_K-56" value="email" style="text;html=1;align=left;verticalAlign=middle;resizable=0;points=[];autosize=1;strokeColor=none;fillColor=none;fontSize=11;" parent="1" vertex="1">
                    <mxGeometry x="1547" y="298.5" width="50" height="30" as="geometry"/>
                </mxCell>
                <mxCell id="U3JI14pHx9eP_fwrzk_K-57" value="" style="endArrow=none;html=1;rounded=0;entryX=0;entryY=0.5;entryDx=0;entryDy=0;fontSize=11;exitX=0.874;exitY=-0.003;exitDx=0;exitDy=0;exitPerimeter=0;" parent="1" source="U3JI14pHx9eP_fwrzk_K-33" target="U3JI14pHx9eP_fwrzk_K-54" edge="1">
                    <mxGeometry width="50" height="50" relative="1" as="geometry">
                        <mxPoint x="1496.01" y="311.5" as="sourcePoint"/>
                        <mxPoint x="1534.5000000000014" y="294.5" as="targetPoint"/>
                        <Array as="points">
                            <mxPoint x="1520" y="296"/>
                        </Array>
                    </mxGeometry>
                </mxCell>
                <mxCell id="U3JI14pHx9eP_fwrzk_K-58" value="" style="endArrow=none;html=1;rounded=0;entryX=0.5;entryY=0;entryDx=0;entryDy=0;exitX=1.001;exitY=0.228;exitDx=0;exitDy=0;fontSize=11;exitPerimeter=0;" parent="1" target="U3JI14pHx9eP_fwrzk_K-59" edge="1">
                    <mxGeometry width="50" height="50" relative="1" as="geometry">
                        <mxPoint x="1506.09" y="314.61999999999995" as="sourcePoint"/>
                        <mxPoint x="1543.5" y="314.3" as="targetPoint"/>
                    </mxGeometry>
                </mxCell>
                <mxCell id="U3JI14pHx9eP_fwrzk_K-59" value="" style="ellipse;whiteSpace=wrap;html=1;aspect=fixed;fillColor=light-dark(#FFFFFF,#FFFFFF);fontSize=11;direction=north;" parent="1" vertex="1">
                    <mxGeometry x="1534.5" y="309.5" width="10" height="10" as="geometry"/>
                </mxCell>
                <mxCell id="U3JI14pHx9eP_fwrzk_K-60" value="" style="endArrow=none;html=1;rounded=0;entryX=0;entryY=0.5;entryDx=0;entryDy=0;exitX=1;exitY=0.782;exitDx=0;exitDy=0;fontSize=11;exitPerimeter=0;" parent="1" target="U3JI14pHx9eP_fwrzk_K-62" edge="1">
                    <mxGeometry width="50" height="50" relative="1" as="geometry">
                        <mxPoint x="1506" y="337.78" as="sourcePoint"/>
                        <mxPoint x="1581.5" y="341.5" as="targetPoint"/>
                        <Array as="points">
                            <mxPoint x="1519" y="348"/>
                        </Array>
                    </mxGeometry>
                </mxCell>
                <mxCell id="U3JI14pHx9eP_fwrzk_K-61" value="name" style="text;html=1;align=left;verticalAlign=middle;resizable=0;points=[];autosize=1;strokeColor=none;fillColor=none;fontSize=11;" parent="1" vertex="1">
                    <mxGeometry x="1546.5" y="317.5" width="50" height="30" as="geometry"/>
                </mxCell>
                <mxCell id="U3JI14pHx9eP_fwrzk_K-62" value="" style="ellipse;whiteSpace=wrap;html=1;aspect=fixed;fillColor=none;fontSize=11;" parent="1" vertex="1">
                    <mxGeometry x="1534.5" y="343.5" width="10" height="10" as="geometry"/>
                </mxCell>
                <mxCell id="U3JI14pHx9eP_fwrzk_K-63" value="" style="endArrow=none;html=1;rounded=0;fontSize=11;exitX=0;exitY=0.5;exitDx=0;exitDy=0;entryX=1;entryY=0.5;entryDx=0;entryDy=0;" parent="1" source="U3JI14pHx9eP_fwrzk_K-64" edge="1">
                    <mxGeometry width="50" height="50" relative="1" as="geometry">
                        <mxPoint x="1581.5" y="333.5" as="sourcePoint"/>
                        <mxPoint x="1506" y="328.5" as="targetPoint"/>
                        <Array as="points">
                            <mxPoint x="1520" y="333"/>
                        </Array>
                    </mxGeometry>
                </mxCell>
                <mxCell id="U3JI14pHx9eP_fwrzk_K-64" value="" style="ellipse;whiteSpace=wrap;html=1;aspect=fixed;fillColor=none;fontSize=11;" parent="1" vertex="1">
                    <mxGeometry x="1535.5" y="327.5" width="10" height="10" as="geometry"/>
                </mxCell>
                <mxCell id="U3JI14pHx9eP_fwrzk_K-66" value="" style="endArrow=none;html=1;rounded=0;entryX=1.001;entryY=0.877;entryDx=0;entryDy=0;exitX=0;exitY=0.5;exitDx=0;exitDy=0;fontSize=11;entryPerimeter=0;" parent="1" source="U3JI14pHx9eP_fwrzk_K-67" target="U3JI14pHx9eP_fwrzk_K-33" edge="1">
                    <mxGeometry width="50" height="50" relative="1" as="geometry">
                        <mxPoint x="1563.5" y="374.5" as="sourcePoint"/>
                        <mxPoint x="1506" y="346.5" as="targetPoint"/>
                        <Array as="points">
                            <mxPoint x="1519" y="366"/>
                        </Array>
                    </mxGeometry>
                </mxCell>
                <mxCell id="U3JI14pHx9eP_fwrzk_K-67" value="" style="ellipse;whiteSpace=wrap;html=1;aspect=fixed;fillColor=none;fontSize=11;" parent="1" vertex="1">
                    <mxGeometry x="1539.5" y="361.5" width="10" height="10" as="geometry"/>
                </mxCell>
                <mxCell id="U3JI14pHx9eP_fwrzk_K-68" value="&lt;font style=&quot;vertical-align: inherit;&quot;&gt;&lt;font style=&quot;vertical-align: inherit;&quot;&gt;gender&lt;/font&gt;&lt;/font&gt;" style="text;html=1;align=left;verticalAlign=middle;resizable=0;points=[];autosize=1;strokeColor=none;fillColor=none;fontSize=11;" parent="1" vertex="1">
                    <mxGeometry x="1544.5" y="331.5" width="60" height="30" as="geometry"/>
                </mxCell>
                <mxCell id="U3JI14pHx9eP_fwrzk_K-70" value="" style="endArrow=none;html=1;rounded=0;entryX=0.88;entryY=1.004;entryDx=0;entryDy=0;fontSize=11;entryPerimeter=0;exitX=0.001;exitY=0.465;exitDx=0;exitDy=0;exitPerimeter=0;" parent="1" source="U3JI14pHx9eP_fwrzk_K-71" target="U3JI14pHx9eP_fwrzk_K-33" edge="1">
                    <mxGeometry width="50" height="50" relative="1" as="geometry">
                        <mxPoint x="1534" y="382" as="sourcePoint"/>
                        <mxPoint x="1493.22" y="348.69999999999993" as="targetPoint"/>
                        <Array as="points">
                            <mxPoint x="1517" y="382"/>
                        </Array>
                    </mxGeometry>
                </mxCell>
                <mxCell id="U3JI14pHx9eP_fwrzk_K-71" value="" style="ellipse;whiteSpace=wrap;html=1;aspect=fixed;fillColor=none;fontSize=11;" parent="1" vertex="1">
                    <mxGeometry x="1540.5" y="377.5" width="10" height="10" as="geometry"/>
                </mxCell>
                <mxCell id="U3JI14pHx9eP_fwrzk_K-72" value="photo" style="text;html=1;align=left;verticalAlign=middle;resizable=0;points=[];autosize=1;strokeColor=none;fillColor=none;fontSize=11;" parent="1" vertex="1">
                    <mxGeometry x="1551" y="368.5" width="46" height="25" as="geometry"/>
                </mxCell>
                <mxCell id="U3JI14pHx9eP_fwrzk_K-73" value="(0,1)" style="text;html=1;align=center;verticalAlign=middle;resizable=0;points=[];autosize=1;strokeColor=none;fillColor=none;fontSize=10;" parent="1" vertex="1">
                    <mxGeometry x="1507.5" y="362.5" width="39" height="24" as="geometry"/>
                </mxCell>
                <mxCell id="BdBJVadAsHIX_H4UZDUO-1" value="" style="endArrow=none;html=1;rounded=0;entryX=0;entryY=0.5;entryDx=0;entryDy=0;exitX=1;exitY=0.5;exitDx=0;exitDy=0;" parent="1" source="U3JI14pHx9eP_fwrzk_K-28" target="U3JI14pHx9eP_fwrzk_K-33" edge="1">
                    <mxGeometry width="50" height="50" relative="1" as="geometry">
                        <mxPoint x="1046" y="421.5" as="sourcePoint"/>
                        <mxPoint x="1045" y="384.5" as="targetPoint"/>
                    </mxGeometry>
                </mxCell>
                <mxCell id="BdBJVadAsHIX_H4UZDUO-2" value="(0,n)" style="text;html=1;align=center;verticalAlign=middle;resizable=0;points=[];autosize=1;strokeColor=none;fillColor=none;" parent="1" vertex="1">
                    <mxGeometry x="1090" y="328.5" width="50" height="30" as="geometry"/>
                </mxCell>
                <mxCell id="BdBJVadAsHIX_H4UZDUO-3" value="(1,1)" style="text;html=1;align=center;verticalAlign=middle;resizable=0;points=[];autosize=1;strokeColor=none;fillColor=none;" parent="1" vertex="1">
                    <mxGeometry x="1373" y="328.5" width="50" height="30" as="geometry"/>
                </mxCell>
                <mxCell id="BdBJVadAsHIX_H4UZDUO-4" value="" style="endArrow=none;html=1;rounded=0;entryX=1;entryY=0.5;entryDx=0;entryDy=0;exitX=0;exitY=0.25;exitDx=0;exitDy=0;fontSize=11;" parent="1" source="U3JI14pHx9eP_fwrzk_K-1" target="BdBJVadAsHIX_H4UZDUO-5" edge="1">
                    <mxGeometry width="50" height="50" relative="1" as="geometry">
                        <mxPoint x="819" y="513.5" as="sourcePoint"/>
                        <mxPoint x="768" y="514.5" as="targetPoint"/>
                    </mxGeometry>
                </mxCell>
                <mxCell id="BdBJVadAsHIX_H4UZDUO-5" value="" style="ellipse;whiteSpace=wrap;html=1;aspect=fixed;fillColor=light-dark(#FFFFFF,#FFFFFF);fontSize=11;" parent="1" vertex="1">
                    <mxGeometry x="790" y="503.5" width="10" height="10" as="geometry"/>
                </mxCell>
                <mxCell id="BdBJVadAsHIX_H4UZDUO-6" value="" style="endArrow=none;html=1;rounded=0;entryX=1;entryY=0.5;entryDx=0;entryDy=0;exitX=0;exitY=0.75;exitDx=0;exitDy=0;fontSize=11;" parent="1" source="U3JI14pHx9eP_fwrzk_K-1" target="BdBJVadAsHIX_H4UZDUO-7" edge="1">
                    <mxGeometry width="50" height="50" relative="1" as="geometry">
                        <mxPoint x="819" y="523.9399999999999" as="sourcePoint"/>
                        <mxPoint x="798" y="523.5" as="targetPoint"/>
                    </mxGeometry>
                </mxCell>
                <mxCell id="BdBJVadAsHIX_H4UZDUO-7" value="" style="ellipse;whiteSpace=wrap;html=1;aspect=fixed;fillColor=none;fontSize=11;" parent="1" vertex="1">
                    <mxGeometry x="790" y="523.5" width="10" height="10" as="geometry"/>
                </mxCell>
                <mxCell id="BdBJVadAsHIX_H4UZDUO-8" value="id" style="text;html=1;align=right;verticalAlign=middle;resizable=0;points=[];autosize=1;strokeColor=none;fillColor=none;" parent="1" vertex="1">
                    <mxGeometry x="759" y="492.5" width="30" height="30" as="geometry"/>
                </mxCell>
                <mxCell id="BdBJVadAsHIX_H4UZDUO-9" value="name" style="text;html=1;align=right;verticalAlign=middle;resizable=0;points=[];autosize=1;strokeColor=none;fillColor=none;" parent="1" vertex="1">
                    <mxGeometry x="739" y="511" width="50" height="30" as="geometry"/>
                </mxCell>
                <mxCell id="BdBJVadAsHIX_H4UZDUO-35" value="&lt;font style=&quot;vertical-align: inherit;&quot;&gt;&lt;font style=&quot;vertical-align: inherit;&quot;&gt;&lt;font style=&quot;vertical-align: inherit;&quot;&gt;&lt;font style=&quot;vertical-align: inherit;&quot;&gt;sells&lt;/font&gt;&lt;/font&gt;&lt;/font&gt;&lt;/font&gt;" style="shape=rhombus;perimeter=rhombusPerimeter;whiteSpace=wrap;html=1;align=center;fillColor=none;fontSize=11;" parent="1" vertex="1">
                    <mxGeometry x="1161" y="397.5" width="100" height="45" as="geometry"/>
                </mxCell>
                <mxCell id="BdBJVadAsHIX_H4UZDUO-36" value="&lt;font style=&quot;vertical-align: inherit;&quot;&gt;&lt;font style=&quot;vertical-align: inherit;&quot;&gt;&lt;font style=&quot;vertical-align: inherit;&quot;&gt;&lt;font style=&quot;vertical-align: inherit;&quot;&gt;offers&lt;/font&gt;&lt;/font&gt;&lt;/font&gt;&lt;/font&gt;" style="shape=rhombus;perimeter=rhombusPerimeter;whiteSpace=wrap;html=1;align=center;fillColor=none;fontSize=11;" parent="1" vertex="1">
                    <mxGeometry x="829" y="397.5" width="100" height="45" as="geometry"/>
                </mxCell>
                <mxCell id="BdBJVadAsHIX_H4UZDUO-37" value="" style="endArrow=none;html=1;rounded=0;entryX=0.256;entryY=1.001;entryDx=0;entryDy=0;exitX=1;exitY=0.5;exitDx=0;exitDy=0;entryPerimeter=0;" parent="1" source="BdBJVadAsHIX_H4UZDUO-36" target="g0mLWEBlBg2iRlSw4-VQ-21" edge="1">
                    <mxGeometry width="50" height="50" relative="1" as="geometry">
                        <mxPoint x="930" y="420" as="sourcePoint"/>
                        <mxPoint x="1030.5" y="355.5" as="targetPoint"/>
                        <Array as="points">
                            <mxPoint x="1030" y="420.5"/>
                        </Array>
                    </mxGeometry>
                </mxCell>
                <mxCell id="BdBJVadAsHIX_H4UZDUO-38" value="" style="endArrow=none;html=1;rounded=0;entryX=0.5;entryY=0;entryDx=0;entryDy=0;exitX=0.5;exitY=1;exitDx=0;exitDy=0;" parent="1" source="BdBJVadAsHIX_H4UZDUO-36" target="U3JI14pHx9eP_fwrzk_K-1" edge="1">
                    <mxGeometry width="50" height="50" relative="1" as="geometry">
                        <mxPoint x="943" y="406.5" as="sourcePoint"/>
                        <mxPoint x="1077" y="364.5" as="targetPoint"/>
                    </mxGeometry>
                </mxCell>
                <mxCell id="BdBJVadAsHIX_H4UZDUO-39" value="" style="endArrow=none;html=1;rounded=0;entryX=0.5;entryY=1;entryDx=0;entryDy=0;exitX=0.5;exitY=0;exitDx=0;exitDy=0;" parent="1" source="U3JI14pHx9eP_fwrzk_K-27" target="BdBJVadAsHIX_H4UZDUO-35" edge="1">
                    <mxGeometry width="50" height="50" relative="1" as="geometry">
                        <mxPoint x="1101" y="384.5" as="sourcePoint"/>
                        <mxPoint x="1117" y="430.5" as="targetPoint"/>
                    </mxGeometry>
                </mxCell>
                <mxCell id="BdBJVadAsHIX_H4UZDUO-40" value="is based on" style="shape=rhombus;perimeter=rhombusPerimeter;whiteSpace=wrap;html=1;align=center;fillColor=none;fontSize=11;" parent="1" vertex="1">
                    <mxGeometry x="998" y="496" width="97" height="45" as="geometry"/>
                </mxCell>
                <mxCell id="BdBJVadAsHIX_H4UZDUO-41" value="" style="endArrow=none;html=1;rounded=0;entryX=1;entryY=0.5;entryDx=0;entryDy=0;exitX=0;exitY=0.5;exitDx=0;exitDy=0;fontStyle=1" parent="1" source="BdBJVadAsHIX_H4UZDUO-40" target="U3JI14pHx9eP_fwrzk_K-1" edge="1">
                    <mxGeometry width="50" height="50" relative="1" as="geometry">
                        <mxPoint x="865" y="464.5" as="sourcePoint"/>
                        <mxPoint x="865" y="520.5" as="targetPoint"/>
                    </mxGeometry>
                </mxCell>
                <mxCell id="BdBJVadAsHIX_H4UZDUO-42" value="" style="endArrow=none;html=1;rounded=0;entryX=1;entryY=0.5;entryDx=0;entryDy=0;exitX=0;exitY=0.5;exitDx=0;exitDy=0;" parent="1" source="U3JI14pHx9eP_fwrzk_K-27" target="BdBJVadAsHIX_H4UZDUO-40" edge="1">
                    <mxGeometry width="50" height="50" relative="1" as="geometry">
                        <mxPoint x="1164" y="524.5" as="sourcePoint"/>
                        <mxPoint x="1095" y="524.5" as="targetPoint"/>
                    </mxGeometry>
                </mxCell>
                <mxCell id="BdBJVadAsHIX_H4UZDUO-46" value="start_date" style="text;html=1;align=center;verticalAlign=middle;resizable=0;points=[];autosize=1;strokeColor=none;fillColor=none;" parent="1" vertex="1">
                    <mxGeometry x="1223" y="563.5" width="80" height="30" as="geometry"/>
                </mxCell>
                <mxCell id="BdBJVadAsHIX_H4UZDUO-47" value="end_date" style="text;html=1;align=center;verticalAlign=middle;resizable=0;points=[];autosize=1;strokeColor=none;fillColor=none;" parent="1" vertex="1">
                    <mxGeometry x="1211.5" y="578.5" width="70" height="30" as="geometry"/>
                </mxCell>
                <mxCell id="BdBJVadAsHIX_H4UZDUO-48" value="status" style="text;html=1;align=center;verticalAlign=middle;resizable=0;points=[];autosize=1;strokeColor=none;fillColor=none;" parent="1" vertex="1">
                    <mxGeometry x="1193" y="593.5" width="60" height="30" as="geometry"/>
                </mxCell>
                <mxCell id="BdBJVadAsHIX_H4UZDUO-55" value="" style="ellipse;whiteSpace=wrap;html=1;aspect=fixed;fillColor=none;fontSize=11;" parent="1" vertex="1">
                    <mxGeometry x="1194" y="603.5" width="10" height="10" as="geometry"/>
                </mxCell>
                <mxCell id="BdBJVadAsHIX_H4UZDUO-56" value="" style="endArrow=none;html=1;rounded=0;exitX=0.5;exitY=0;exitDx=0;exitDy=0;entryX=0.521;entryY=1.002;entryDx=0;entryDy=0;entryPerimeter=0;" parent="1" source="BdBJVadAsHIX_H4UZDUO-55" edge="1">
                    <mxGeometry width="50" height="50" relative="1" as="geometry">
                        <mxPoint x="1173" y="587.5" as="sourcePoint"/>
                        <mxPoint x="1198.8899999999999" y="537.5799999999999" as="targetPoint"/>
                    </mxGeometry>
                </mxCell>
                <mxCell id="BdBJVadAsHIX_H4UZDUO-58" value="" style="ellipse;whiteSpace=wrap;html=1;aspect=fixed;fillColor=none;fontSize=11;" parent="1" vertex="1">
                    <mxGeometry x="1224" y="574.5" width="10" height="10" as="geometry"/>
                </mxCell>
                <mxCell id="BdBJVadAsHIX_H4UZDUO-59" value="" style="endArrow=none;html=1;rounded=0;exitX=0.5;exitY=0;exitDx=0;exitDy=0;entryX=0.855;entryY=1.001;entryDx=0;entryDy=0;entryPerimeter=0;" parent="1" source="BdBJVadAsHIX_H4UZDUO-58" edge="1">
                    <mxGeometry width="50" height="50" relative="1" as="geometry">
                        <mxPoint x="1203" y="564.5" as="sourcePoint"/>
                        <mxPoint x="1228.95" y="537.5399999999998" as="targetPoint"/>
                    </mxGeometry>
                </mxCell>
                <mxCell id="BdBJVadAsHIX_H4UZDUO-60" value="" style="ellipse;whiteSpace=wrap;html=1;aspect=fixed;fillColor=none;fontSize=11;" parent="1" vertex="1">
                    <mxGeometry x="1209" y="589.5" width="10" height="10" as="geometry"/>
                </mxCell>
                <mxCell id="BdBJVadAsHIX_H4UZDUO-61" value="" style="endArrow=none;html=1;rounded=0;exitX=0.5;exitY=0;exitDx=0;exitDy=0;entryX=0.687;entryY=1.001;entryDx=0;entryDy=0;entryPerimeter=0;" parent="1" source="BdBJVadAsHIX_H4UZDUO-60" edge="1">
                    <mxGeometry width="50" height="50" relative="1" as="geometry">
                        <mxPoint x="1188" y="580.5" as="sourcePoint"/>
                        <mxPoint x="1213.83" y="537.5399999999998" as="targetPoint"/>
                    </mxGeometry>
                </mxCell>
                <mxCell id="BdBJVadAsHIX_H4UZDUO-80" value="&lt;font&gt;&lt;font style=&quot;vertical-align: inherit;&quot;&gt;&lt;font style=&quot;vertical-align: inherit;&quot;&gt;MEMBERSHIP_PERIOD&lt;/font&gt;&lt;/font&gt;&lt;/font&gt;" style="rounded=0;whiteSpace=wrap;html=1;fillColor=none;fontSize=11;" parent="1" vertex="1">
                    <mxGeometry x="814" y="672" width="130" height="40" as="geometry"/>
                </mxCell>
                <mxCell id="BdBJVadAsHIX_H4UZDUO-81" value="" style="ellipse;whiteSpace=wrap;html=1;aspect=fixed;fillColor=none;fontSize=11;" parent="1" vertex="1">
                    <mxGeometry x="785.5" y="676.5" width="10" height="10" as="geometry"/>
                </mxCell>
                <mxCell id="BdBJVadAsHIX_H4UZDUO-82" value="name" style="text;html=1;align=right;verticalAlign=middle;resizable=0;points=[];autosize=1;strokeColor=none;fillColor=none;" parent="1" vertex="1">
                    <mxGeometry x="733" y="664.5" width="50" height="30" as="geometry"/>
                </mxCell>
                <mxCell id="BdBJVadAsHIX_H4UZDUO-83" value="" style="ellipse;whiteSpace=wrap;html=1;aspect=fixed;fillColor=none;fontSize=11;" parent="1" vertex="1">
                    <mxGeometry x="785.5" y="691.5" width="10" height="10" as="geometry"/>
                </mxCell>
                <mxCell id="BdBJVadAsHIX_H4UZDUO-84" value="" style="ellipse;whiteSpace=wrap;html=1;aspect=fixed;fillColor=none;fontSize=11;" parent="1" vertex="1">
                    <mxGeometry x="785.5" y="707.5" width="10" height="10" as="geometry"/>
                </mxCell>
                <mxCell id="BdBJVadAsHIX_H4UZDUO-85" value="duration_unit" style="text;html=1;align=right;verticalAlign=middle;resizable=0;points=[];autosize=1;strokeColor=none;fillColor=none;" parent="1" vertex="1">
                    <mxGeometry x="692.5" y="696.5" width="90" height="30" as="geometry"/>
                </mxCell>
                <mxCell id="BdBJVadAsHIX_H4UZDUO-86" value="" style="ellipse;whiteSpace=wrap;html=1;aspect=fixed;fillColor=none;fontSize=11;" parent="1" vertex="1">
                    <mxGeometry x="785.5" y="724.5" width="10" height="10" as="geometry"/>
                </mxCell>
                <mxCell id="BdBJVadAsHIX_H4UZDUO-87" value="price" style="text;html=1;align=right;verticalAlign=middle;resizable=0;points=[];autosize=1;strokeColor=none;fillColor=none;" parent="1" vertex="1">
                    <mxGeometry x="733" y="712.5" width="50" height="30" as="geometry"/>
                </mxCell>
                <mxCell id="BdBJVadAsHIX_H4UZDUO-88" value="" style="endArrow=none;html=1;rounded=0;entryX=1;entryY=0.5;entryDx=0;entryDy=0;exitX=0.001;exitY=0.233;exitDx=0;exitDy=0;fontSize=11;exitPerimeter=0;" parent="1" source="BdBJVadAsHIX_H4UZDUO-80" target="BdBJVadAsHIX_H4UZDUO-81" edge="1">
                    <mxGeometry width="50" height="50" relative="1" as="geometry">
                        <mxPoint x="813.87" y="688.08" as="sourcePoint"/>
                        <mxPoint x="741.5" y="679.5" as="targetPoint"/>
                    </mxGeometry>
                </mxCell>
                <mxCell id="BdBJVadAsHIX_H4UZDUO-89" value="" style="endArrow=none;html=1;rounded=0;entryX=1;entryY=0.5;entryDx=0;entryDy=0;exitX=0.001;exitY=0.34;exitDx=0;exitDy=0;fontSize=11;exitPerimeter=0;" parent="1" target="BdBJVadAsHIX_H4UZDUO-83" edge="1">
                    <mxGeometry width="50" height="50" relative="1" as="geometry">
                        <mxPoint x="814.1299999999999" y="696.6" as="sourcePoint"/>
                        <mxPoint x="752.5" y="686.5" as="targetPoint"/>
                    </mxGeometry>
                </mxCell>
                <mxCell id="BdBJVadAsHIX_H4UZDUO-90" value="" style="endArrow=none;html=1;rounded=0;exitX=1;exitY=0.5;exitDx=0;exitDy=0;fontSize=11;entryX=0;entryY=1;entryDx=0;entryDy=0;" parent="1" source="BdBJVadAsHIX_H4UZDUO-84" target="BdBJVadAsHIX_H4UZDUO-80" edge="1">
                    <mxGeometry width="50" height="50" relative="1" as="geometry">
                        <mxPoint x="773.5" y="701.5" as="sourcePoint"/>
                        <mxPoint x="814" y="710.48" as="targetPoint"/>
                    </mxGeometry>
                </mxCell>
                <mxCell id="BdBJVadAsHIX_H4UZDUO-91" value="" style="endArrow=none;html=1;rounded=0;entryX=1;entryY=0.5;entryDx=0;entryDy=0;exitX=0.077;exitY=1.003;exitDx=0;exitDy=0;fontSize=11;exitPerimeter=0;" parent="1" source="BdBJVadAsHIX_H4UZDUO-80" target="BdBJVadAsHIX_H4UZDUO-86" edge="1">
                    <mxGeometry width="50" height="50" relative="1" as="geometry">
                        <mxPoint x="824.01" y="718.24" as="sourcePoint"/>
                        <mxPoint x="794.5000000000007" y="735.5" as="targetPoint"/>
                        <Array as="points">
                            <mxPoint x="805" y="729.5"/>
                        </Array>
                    </mxGeometry>
                </mxCell>
                <mxCell id="BdBJVadAsHIX_H4UZDUO-92" value="duration_value" style="text;html=1;align=right;verticalAlign=middle;resizable=0;points=[];autosize=1;strokeColor=none;fillColor=none;" parent="1" vertex="1">
                    <mxGeometry x="682.5" y="680.5" width="100" height="30" as="geometry"/>
                </mxCell>
                <mxCell id="BdBJVadAsHIX_H4UZDUO-93" value="" style="ellipse;whiteSpace=wrap;html=1;aspect=fixed;fillColor=light-dark(#FFFFFF,#FFFFFF);fontSize=11;" parent="1" vertex="1">
                    <mxGeometry x="784.5" y="658.5" width="10" height="10" as="geometry"/>
                </mxCell>
                <mxCell id="BdBJVadAsHIX_H4UZDUO-94" value="id" style="text;html=1;align=right;verticalAlign=middle;resizable=0;points=[];autosize=1;strokeColor=none;fillColor=none;" parent="1" vertex="1">
                    <mxGeometry x="752" y="648.5" width="30" height="30" as="geometry"/>
                </mxCell>
                <mxCell id="BdBJVadAsHIX_H4UZDUO-95" value="" style="endArrow=none;html=1;rounded=0;entryX=1;entryY=0.5;entryDx=0;entryDy=0;exitX=0;exitY=0;exitDx=0;exitDy=0;fontSize=11;" parent="1" source="BdBJVadAsHIX_H4UZDUO-80" target="BdBJVadAsHIX_H4UZDUO-93" edge="1">
                    <mxGeometry width="50" height="50" relative="1" as="geometry">
                        <mxPoint x="814" y="672" as="sourcePoint"/>
                        <mxPoint x="741.5" y="663.5" as="targetPoint"/>
                        <Array as="points">
                            <mxPoint x="804" y="664"/>
                        </Array>
                    </mxGeometry>
                </mxCell>
                <mxCell id="BdBJVadAsHIX_H4UZDUO-96" value="has available" style="shape=rhombus;perimeter=rhombusPerimeter;whiteSpace=wrap;html=1;align=center;fillColor=none;fontSize=11;" parent="1" vertex="1">
                    <mxGeometry x="826" y="581.5" width="106" height="45" as="geometry"/>
                </mxCell>
                <mxCell id="BdBJVadAsHIX_H4UZDUO-97" value="" style="endArrow=none;html=1;rounded=0;entryX=0.5;entryY=1;entryDx=0;entryDy=0;exitX=0.5;exitY=0;exitDx=0;exitDy=0;fontStyle=1" parent="1" source="BdBJVadAsHIX_H4UZDUO-96" target="U3JI14pHx9eP_fwrzk_K-1" edge="1">
                    <mxGeometry width="50" height="50" relative="1" as="geometry">
                        <mxPoint x="1043" y="514.5" as="sourcePoint"/>
                        <mxPoint x="975" y="514.5" as="targetPoint"/>
                    </mxGeometry>
                </mxCell>
                <mxCell id="BdBJVadAsHIX_H4UZDUO-98" value="" style="endArrow=none;html=1;rounded=0;entryX=0.5;entryY=0;entryDx=0;entryDy=0;fontStyle=1;exitX=0.5;exitY=1;exitDx=0;exitDy=0;" parent="1" source="BdBJVadAsHIX_H4UZDUO-96" target="BdBJVadAsHIX_H4UZDUO-80" edge="1">
                    <mxGeometry width="50" height="50" relative="1" as="geometry">
                        <mxPoint x="885" y="634.5" as="sourcePoint"/>
                        <mxPoint x="875" y="574.5" as="targetPoint"/>
                    </mxGeometry>
                </mxCell>
                <mxCell id="BdBJVadAsHIX_H4UZDUO-99" value="(0,n)" style="text;html=1;align=center;verticalAlign=middle;resizable=0;points=[];autosize=1;strokeColor=none;fillColor=none;" parent="1" vertex="1">
                    <mxGeometry x="870" y="534.5" width="50" height="30" as="geometry"/>
                </mxCell>
                <mxCell id="BdBJVadAsHIX_H4UZDUO-100" value="(1,1)" style="text;html=1;align=center;verticalAlign=middle;resizable=0;points=[];autosize=1;strokeColor=none;fillColor=none;" parent="1" vertex="1">
                    <mxGeometry x="870" y="645.5" width="50" height="30" as="geometry"/>
                </mxCell>
                <mxCell id="BdBJVadAsHIX_H4UZDUO-101" value="(1,n)" style="text;html=1;align=center;verticalAlign=middle;resizable=0;points=[];autosize=1;strokeColor=none;fillColor=none;" parent="1" vertex="1">
                    <mxGeometry x="990" y="352.5" width="50" height="30" as="geometry"/>
                </mxCell>
                <mxCell id="BdBJVadAsHIX_H4UZDUO-102" value="(0,n)" style="text;html=1;align=center;verticalAlign=middle;resizable=0;points=[];autosize=1;strokeColor=none;fillColor=none;" parent="1" vertex="1">
                    <mxGeometry x="1068" y="354.5" width="43" height="26" as="geometry"/>
                </mxCell>
                <mxCell id="BdBJVadAsHIX_H4UZDUO-103" value="(1,1)" style="text;html=1;align=center;verticalAlign=middle;resizable=0;points=[];autosize=1;strokeColor=none;fillColor=none;" parent="1" vertex="1">
                    <mxGeometry x="870" y="471.5" width="50" height="30" as="geometry"/>
                </mxCell>
                <mxCell id="BdBJVadAsHIX_H4UZDUO-104" value="(1,1)" style="text;html=1;align=center;verticalAlign=middle;resizable=0;points=[];autosize=1;strokeColor=none;fillColor=none;" parent="1" vertex="1">
                    <mxGeometry x="1169" y="471.5" width="50" height="30" as="geometry"/>
                </mxCell>
                <mxCell id="BdBJVadAsHIX_H4UZDUO-105" value="(1,1)" style="text;html=1;align=center;verticalAlign=middle;resizable=0;points=[];autosize=1;strokeColor=none;fillColor=none;" parent="1" vertex="1">
                    <mxGeometry x="1125" y="512" width="50" height="30" as="geometry"/>
                </mxCell>
                <mxCell id="BdBJVadAsHIX_H4UZDUO-106" value="(0,n)" style="text;html=1;align=center;verticalAlign=middle;resizable=0;points=[];autosize=1;strokeColor=none;fillColor=none;" parent="1" vertex="1">
                    <mxGeometry x="931" y="512.5" width="50" height="30" as="geometry"/>
                </mxCell>
                <mxCell id="BdBJVadAsHIX_H4UZDUO-109" value="" style="endArrow=none;html=1;rounded=0;exitX=0.126;exitY=1.003;exitDx=0;exitDy=0;entryX=0.5;entryY=0;entryDx=0;entryDy=0;exitPerimeter=0;" parent="1" source="U3JI14pHx9eP_fwrzk_K-27" target="BdBJVadAsHIX_H4UZDUO-110" edge="1">
                    <mxGeometry width="50" height="50" relative="1" as="geometry">
                        <mxPoint x="1177" y="510.5" as="sourcePoint"/>
                        <mxPoint x="1187" y="681.5" as="targetPoint"/>
                    </mxGeometry>
                </mxCell>
                <mxCell id="BdBJVadAsHIX_H4UZDUO-110" value="uses" style="shape=rhombus;perimeter=rhombusPerimeter;whiteSpace=wrap;html=1;align=center;fillColor=none;fontSize=11;" parent="1" vertex="1">
                    <mxGeometry x="1133" y="669.5" width="90" height="45" as="geometry"/>
                </mxCell>
                <mxCell id="BdBJVadAsHIX_H4UZDUO-111" value="" style="endArrow=none;html=1;rounded=0;exitX=1;exitY=0.5;exitDx=0;exitDy=0;entryX=0;entryY=0.5;entryDx=0;entryDy=0;" parent="1" source="BdBJVadAsHIX_H4UZDUO-80" target="BdBJVadAsHIX_H4UZDUO-110" edge="1">
                    <mxGeometry width="50" height="50" relative="1" as="geometry">
                        <mxPoint x="1215" y="610.5" as="sourcePoint"/>
                        <mxPoint x="1115" y="736.5" as="targetPoint"/>
                    </mxGeometry>
                </mxCell>
                <mxCell id="BdBJVadAsHIX_H4UZDUO-112" value="" style="endArrow=none;html=1;rounded=0;entryX=0.5;entryY=0;entryDx=0;entryDy=0;exitX=1;exitY=1;exitDx=0;exitDy=0;fontSize=11;" parent="1" target="BdBJVadAsHIX_H4UZDUO-113" edge="1">
                    <mxGeometry width="50" height="50" relative="1" as="geometry">
                        <mxPoint x="1242" y="537.5" as="sourcePoint"/>
                        <mxPoint x="1291" y="548" as="targetPoint"/>
                    </mxGeometry>
                </mxCell>
                <mxCell id="BdBJVadAsHIX_H4UZDUO-113" value="" style="ellipse;whiteSpace=wrap;html=1;aspect=fixed;fillColor=none;fontSize=11;" parent="1" vertex="1">
                    <mxGeometry x="1237" y="561.5" width="10" height="10" as="geometry"/>
                </mxCell>
                <mxCell id="BdBJVadAsHIX_H4UZDUO-114" value="price" style="text;html=1;align=left;verticalAlign=middle;resizable=0;points=[];autosize=1;strokeColor=none;fillColor=none;" parent="1" vertex="1">
                    <mxGeometry x="1248" y="549.5" width="50" height="30" as="geometry"/>
                </mxCell>
                <mxCell id="BdBJVadAsHIX_H4UZDUO-115" value="(1,1)" style="text;html=1;align=center;verticalAlign=middle;resizable=0;points=[];autosize=1;strokeColor=none;fillColor=none;" parent="1" vertex="1">
                    <mxGeometry x="1138" y="537.5" width="50" height="30" as="geometry"/>
                </mxCell>
                <mxCell id="BdBJVadAsHIX_H4UZDUO-116" value="(0,n)" style="text;html=1;align=center;verticalAlign=middle;resizable=0;points=[];autosize=1;strokeColor=none;fillColor=none;" parent="1" vertex="1">
                    <mxGeometry x="936" y="666.5" width="50" height="30" as="geometry"/>
                </mxCell>
                <mxCell id="R1ElPfqIBxvPQvqKOZJK-1" value="" style="endArrow=none;html=1;rounded=0;entryX=0.5;entryY=0;entryDx=0;entryDy=0;exitX=1;exitY=1;exitDx=0;exitDy=0;fontSize=11;" parent="1" target="R1ElPfqIBxvPQvqKOZJK-2" edge="1">
                    <mxGeometry width="50" height="50" relative="1" as="geometry">
                        <mxPoint x="1256" y="537.5" as="sourcePoint"/>
                        <mxPoint x="1305" y="548" as="targetPoint"/>
                    </mxGeometry>
                </mxCell>
                <mxCell id="R1ElPfqIBxvPQvqKOZJK-2" value="`" style="ellipse;whiteSpace=wrap;html=1;aspect=fixed;fillColor=light-dark(#FFFFFF,#FFFFFF);fontSize=11;" parent="1" vertex="1">
                    <mxGeometry x="1251" y="547.5" width="10" height="10" as="geometry"/>
                </mxCell>
                <mxCell id="R1ElPfqIBxvPQvqKOZJK-3" value="id" style="text;html=1;align=left;verticalAlign=middle;resizable=0;points=[];autosize=1;strokeColor=none;fillColor=none;" parent="1" vertex="1">
                    <mxGeometry x="1261" y="536.5" width="30" height="30" as="geometry"/>
                </mxCell>
                <mxCell id="R1ElPfqIBxvPQvqKOZJK-5" value="&lt;font style=&quot;vertical-align: inherit;&quot;&gt;&lt;font style=&quot;vertical-align: inherit;&quot;&gt;&lt;font style=&quot;vertical-align: inherit;&quot;&gt;&lt;font style=&quot;vertical-align: inherit;&quot;&gt;purchases&lt;/font&gt;&lt;/font&gt;&lt;/font&gt;&lt;/font&gt;" style="shape=rhombus;perimeter=rhombusPerimeter;whiteSpace=wrap;html=1;align=center;fillColor=none;fontSize=11;" parent="1" vertex="1">
                    <mxGeometry x="1411" y="495" width="100" height="45" as="geometry"/>
                </mxCell>
                <mxCell id="R1ElPfqIBxvPQvqKOZJK-6" value="" style="endArrow=none;html=1;rounded=0;entryX=0.5;entryY=1;entryDx=0;entryDy=0;exitX=0.5;exitY=0;exitDx=0;exitDy=0;" parent="1" source="R1ElPfqIBxvPQvqKOZJK-5" target="U3JI14pHx9eP_fwrzk_K-33" edge="1">
                    <mxGeometry width="50" height="50" relative="1" as="geometry">
                        <mxPoint x="1267" y="499.5" as="sourcePoint"/>
                        <mxPoint x="1267" y="444.5" as="targetPoint"/>
                    </mxGeometry>
                </mxCell>
                <mxCell id="R1ElPfqIBxvPQvqKOZJK-7" value="" style="endArrow=none;html=1;rounded=0;entryX=1;entryY=0.5;entryDx=0;entryDy=0;exitX=0;exitY=0.5;exitDx=0;exitDy=0;" parent="1" source="R1ElPfqIBxvPQvqKOZJK-5" target="U3JI14pHx9eP_fwrzk_K-27" edge="1">
                    <mxGeometry width="50" height="50" relative="1" as="geometry">
                        <mxPoint x="1401" y="558.5" as="sourcePoint"/>
                        <mxPoint x="1375" y="434.5" as="targetPoint"/>
                    </mxGeometry>
                </mxCell>
                <mxCell id="R1ElPfqIBxvPQvqKOZJK-8" value="(0,n)" style="text;html=1;align=center;verticalAlign=middle;resizable=0;points=[];autosize=1;strokeColor=none;fillColor=none;" parent="1" vertex="1">
                    <mxGeometry x="1420" y="351.5" width="50" height="30" as="geometry"/>
                </mxCell>
                <mxCell id="R1ElPfqIBxvPQvqKOZJK-9" value="(1,1)" style="text;html=1;align=center;verticalAlign=middle;resizable=0;points=[];autosize=1;strokeColor=none;fillColor=none;" parent="1" vertex="1">
                    <mxGeometry x="1249" y="491.5" width="50" height="30" as="geometry"/>
                </mxCell>
                <mxCell id="R1ElPfqIBxvPQvqKOZJK-17" value="VISIT" style="rounded=0;whiteSpace=wrap;html=1;fillColor=none;fontSize=11;" parent="1" vertex="1">
                    <mxGeometry x="1257" y="225" width="90" height="40" as="geometry"/>
                </mxCell>
                <mxCell id="R1ElPfqIBxvPQvqKOZJK-18" value="VISIT_TYPE" style="rounded=0;whiteSpace=wrap;html=1;fillColor=none;fontSize=11;" parent="1" vertex="1">
                    <mxGeometry x="1256" y="104" width="90" height="40" as="geometry"/>
                </mxCell>
                <mxCell id="R1ElPfqIBxvPQvqKOZJK-21" value="&lt;font style=&quot;vertical-align: inherit;&quot;&gt;&lt;font style=&quot;vertical-align: inherit;&quot;&gt;&lt;font style=&quot;vertical-align: inherit;&quot;&gt;&lt;font style=&quot;vertical-align: inherit;&quot;&gt;offers&lt;/font&gt;&lt;/font&gt;&lt;/font&gt;&lt;/font&gt;" style="shape=rhombus;perimeter=rhombusPerimeter;whiteSpace=wrap;html=1;align=center;fillColor=none;fontSize=11;" parent="1" vertex="1">
                    <mxGeometry x="1121.5" y="102" width="91" height="45" as="geometry"/>
                </mxCell>
                <mxCell id="R1ElPfqIBxvPQvqKOZJK-23" value="" style="endArrow=none;html=1;rounded=0;entryX=0;entryY=0.5;entryDx=0;entryDy=0;exitX=1;exitY=0.5;exitDx=0;exitDy=0;" parent="1" source="R1ElPfqIBxvPQvqKOZJK-21" target="R1ElPfqIBxvPQvqKOZJK-18" edge="1">
                    <mxGeometry width="50" height="50" relative="1" as="geometry">
                        <mxPoint x="1125" y="297.5" as="sourcePoint"/>
                        <mxPoint x="1126" y="171.5" as="targetPoint"/>
                    </mxGeometry>
                </mxCell>
                <mxCell id="R1ElPfqIBxvPQvqKOZJK-37" value="" style="ellipse;whiteSpace=wrap;html=1;aspect=fixed;fillColor=light-dark(#FFFFFF,#FFFFFF);fontSize=11;" parent="1" vertex="1">
                    <mxGeometry x="1284" y="83" width="10" height="10" as="geometry"/>
                </mxCell>
                <mxCell id="R1ElPfqIBxvPQvqKOZJK-38" value="" style="endArrow=none;html=1;rounded=0;entryX=0.5;entryY=1;entryDx=0;entryDy=0;fontSize=11;exitX=0.367;exitY=0.004;exitDx=0;exitDy=0;exitPerimeter=0;" parent="1" source="R1ElPfqIBxvPQvqKOZJK-18" target="R1ElPfqIBxvPQvqKOZJK-37" edge="1">
                    <mxGeometry width="50" height="50" relative="1" as="geometry">
                        <mxPoint x="1289" y="104" as="sourcePoint"/>
                        <mxPoint x="1244.0000000000045" y="109" as="targetPoint"/>
                    </mxGeometry>
                </mxCell>
                <mxCell id="R1ElPfqIBxvPQvqKOZJK-39" value="&lt;font style=&quot;vertical-align: inherit;&quot;&gt;&lt;font style=&quot;vertical-align: inherit;&quot;&gt;id&lt;/font&gt;&lt;/font&gt;" style="text;html=1;align=right;verticalAlign=middle;resizable=0;points=[];autosize=1;strokeColor=none;fillColor=none;" parent="1" vertex="1">
                    <mxGeometry x="1253" y="72" width="30" height="30" as="geometry"/>
                </mxCell>
                <mxCell id="R1ElPfqIBxvPQvqKOZJK-42" value="&lt;font style=&quot;vertical-align: inherit;&quot;&gt;&lt;font style=&quot;vertical-align: inherit;&quot;&gt;price&lt;/font&gt;&lt;/font&gt;" style="text;html=1;align=right;verticalAlign=middle;resizable=0;points=[];autosize=1;strokeColor=none;fillColor=none;" parent="1" vertex="1">
                    <mxGeometry x="1262" y="46" width="50" height="30" as="geometry"/>
                </mxCell>
                <mxCell id="R1ElPfqIBxvPQvqKOZJK-43" value="" style="endArrow=none;html=1;rounded=0;entryX=0.5;entryY=1;entryDx=0;entryDy=0;fontSize=11;exitX=0.689;exitY=-0.001;exitDx=0;exitDy=0;exitPerimeter=0;" parent="1" source="R1ElPfqIBxvPQvqKOZJK-18" target="R1ElPfqIBxvPQvqKOZJK-44" edge="1">
                    <mxGeometry width="50" height="50" relative="1" as="geometry">
                        <mxPoint x="1318" y="104" as="sourcePoint"/>
                        <mxPoint x="1318.4999999999875" y="81" as="targetPoint"/>
                    </mxGeometry>
                </mxCell>
                <mxCell id="R1ElPfqIBxvPQvqKOZJK-44" value="" style="ellipse;whiteSpace=wrap;html=1;aspect=fixed;fillColor=none;fontSize=11;" parent="1" vertex="1">
                    <mxGeometry x="1313" y="58" width="10" height="10" as="geometry"/>
                </mxCell>
                <mxCell id="R1ElPfqIBxvPQvqKOZJK-46" value="" style="ellipse;whiteSpace=wrap;html=1;aspect=fixed;fillColor=none;fontSize=11;" parent="1" vertex="1">
                    <mxGeometry x="1298" y="70" width="10" height="10" as="geometry"/>
                </mxCell>
                <mxCell id="R1ElPfqIBxvPQvqKOZJK-47" value="" style="endArrow=none;html=1;rounded=0;entryX=0.5;entryY=1;entryDx=0;entryDy=0;fontSize=11;exitX=0.522;exitY=-0.001;exitDx=0;exitDy=0;exitPerimeter=0;" parent="1" source="R1ElPfqIBxvPQvqKOZJK-18" target="R1ElPfqIBxvPQvqKOZJK-46" edge="1">
                    <mxGeometry width="50" height="50" relative="1" as="geometry">
                        <mxPoint x="1303" y="104" as="sourcePoint"/>
                        <mxPoint x="1258.0000000000045" y="109" as="targetPoint"/>
                    </mxGeometry>
                </mxCell>
                <mxCell id="R1ElPfqIBxvPQvqKOZJK-48" value="&lt;font style=&quot;vertical-align: inherit;&quot;&gt;&lt;font style=&quot;vertical-align: inherit;&quot;&gt;&lt;font style=&quot;vertical-align: inherit;&quot;&gt;&lt;font style=&quot;vertical-align: inherit;&quot;&gt;name&lt;/font&gt;&lt;/font&gt;&lt;/font&gt;&lt;/font&gt;" style="text;html=1;align=right;verticalAlign=middle;resizable=0;points=[];autosize=1;strokeColor=none;fillColor=none;" parent="1" vertex="1">
                    <mxGeometry x="1247" y="58" width="50" height="30" as="geometry"/>
                </mxCell>
                <mxCell id="R1ElPfqIBxvPQvqKOZJK-53" value="(1,n)" style="text;html=1;align=center;verticalAlign=middle;resizable=0;points=[];autosize=1;strokeColor=none;fillColor=none;" parent="1" vertex="1">
                    <mxGeometry x="1034" y="200" width="50" height="30" as="geometry"/>
                </mxCell>
                <mxCell id="R1ElPfqIBxvPQvqKOZJK-54" value="(1,1)" style="text;html=1;align=center;verticalAlign=middle;resizable=0;points=[];autosize=1;strokeColor=none;fillColor=none;" parent="1" vertex="1">
                    <mxGeometry x="1215" y="117" width="50" height="30" as="geometry"/>
                </mxCell>
                <mxCell id="R1ElPfqIBxvPQvqKOZJK-56" value="&lt;font style=&quot;vertical-align: inherit;&quot;&gt;&lt;font style=&quot;vertical-align: inherit;&quot;&gt;&lt;font style=&quot;vertical-align: inherit;&quot;&gt;&lt;font style=&quot;vertical-align: inherit;&quot;&gt;sells&lt;/font&gt;&lt;/font&gt;&lt;/font&gt;&lt;/font&gt;" style="shape=rhombus;perimeter=rhombusPerimeter;whiteSpace=wrap;html=1;align=center;fillColor=none;fontSize=11;" parent="1" vertex="1">
                    <mxGeometry x="1122" y="222.5" width="91" height="45" as="geometry"/>
                </mxCell>
                <mxCell id="R1ElPfqIBxvPQvqKOZJK-58" value="" style="endArrow=none;html=1;rounded=0;entryX=0;entryY=0.5;entryDx=0;entryDy=0;exitX=1;exitY=0;exitDx=0;exitDy=0;edgeStyle=orthogonalEdgeStyle;" parent="1" source="g0mLWEBlBg2iRlSw4-VQ-21" target="R1ElPfqIBxvPQvqKOZJK-56" edge="1">
                    <mxGeometry width="50" height="50" relative="1" as="geometry">
                        <mxPoint x="1075" y="315.5" as="sourcePoint"/>
                        <mxPoint x="1123" y="245" as="targetPoint"/>
                    </mxGeometry>
                </mxCell>
                <mxCell id="R1ElPfqIBxvPQvqKOZJK-62" value="" style="endArrow=none;html=1;rounded=0;entryX=0;entryY=0.5;entryDx=0;entryDy=0;exitX=1;exitY=0.5;exitDx=0;exitDy=0;" parent="1" source="R1ElPfqIBxvPQvqKOZJK-56" target="R1ElPfqIBxvPQvqKOZJK-17" edge="1">
                    <mxGeometry width="50" height="50" relative="1" as="geometry">
                        <mxPoint x="1125" y="144.5" as="sourcePoint"/>
                        <mxPoint x="1189" y="144.5" as="targetPoint"/>
                    </mxGeometry>
                </mxCell>
                <mxCell id="R1ElPfqIBxvPQvqKOZJK-63" value="(0,n)" style="text;html=1;align=center;verticalAlign=middle;resizable=0;points=[];autosize=1;strokeColor=none;fillColor=none;" parent="1" vertex="1">
                    <mxGeometry x="1087" y="266.5" width="50" height="30" as="geometry"/>
                </mxCell>
                <mxCell id="R1ElPfqIBxvPQvqKOZJK-66" value="(1,1)" style="text;html=1;align=center;verticalAlign=middle;resizable=0;points=[];autosize=1;strokeColor=none;fillColor=none;" parent="1" vertex="1">
                    <mxGeometry x="1216" y="238" width="50" height="30" as="geometry"/>
                </mxCell>
                <mxCell id="R1ElPfqIBxvPQvqKOZJK-68" value="price" style="text;html=1;align=center;verticalAlign=middle;resizable=0;points=[];autosize=1;strokeColor=none;fillColor=none;" parent="1" vertex="1">
                    <mxGeometry x="1246" y="278.5" width="50" height="30" as="geometry"/>
                </mxCell>
                <mxCell id="R1ElPfqIBxvPQvqKOZJK-72" value="" style="ellipse;whiteSpace=wrap;html=1;aspect=fixed;fillColor=none;fontSize=11;" parent="1" vertex="1">
                    <mxGeometry x="1287" y="289.5" width="10" height="10" as="geometry"/>
                </mxCell>
                <mxCell id="R1ElPfqIBxvPQvqKOZJK-73" value="" style="endArrow=none;html=1;rounded=0;exitX=0.5;exitY=0;exitDx=0;exitDy=0;entryX=0.855;entryY=1.001;entryDx=0;entryDy=0;entryPerimeter=0;" parent="1" source="R1ElPfqIBxvPQvqKOZJK-72" edge="1">
                    <mxGeometry width="50" height="50" relative="1" as="geometry">
                        <mxPoint x="1266" y="291.5" as="sourcePoint"/>
                        <mxPoint x="1291.95" y="264.53999999999985" as="targetPoint"/>
                    </mxGeometry>
                </mxCell>
                <mxCell id="R1ElPfqIBxvPQvqKOZJK-76" value="" style="endArrow=none;html=1;rounded=0;entryX=0.5;entryY=0;entryDx=0;entryDy=0;exitX=1;exitY=1;exitDx=0;exitDy=0;fontSize=11;" parent="1" target="R1ElPfqIBxvPQvqKOZJK-77" edge="1">
                    <mxGeometry width="50" height="50" relative="1" as="geometry">
                        <mxPoint x="1305" y="264.5" as="sourcePoint"/>
                        <mxPoint x="1354" y="275" as="targetPoint"/>
                    </mxGeometry>
                </mxCell>
                <mxCell id="R1ElPfqIBxvPQvqKOZJK-77" value="" style="ellipse;whiteSpace=wrap;html=1;aspect=fixed;fillColor=none;fontSize=11;" parent="1" vertex="1">
                    <mxGeometry x="1300" y="289.5" width="10" height="10" as="geometry"/>
                </mxCell>
                <mxCell id="R1ElPfqIBxvPQvqKOZJK-78" value="date_time" style="text;html=1;align=left;verticalAlign=middle;resizable=0;points=[];autosize=1;strokeColor=none;fillColor=none;" parent="1" vertex="1">
                    <mxGeometry x="1311" y="278.5" width="80" height="30" as="geometry"/>
                </mxCell>
                <mxCell id="R1ElPfqIBxvPQvqKOZJK-79" value="" style="endArrow=none;html=1;rounded=0;entryX=0.5;entryY=0;entryDx=0;entryDy=0;exitX=1;exitY=1;exitDx=0;exitDy=0;fontSize=11;" parent="1" target="R1ElPfqIBxvPQvqKOZJK-80" edge="1">
                    <mxGeometry width="50" height="50" relative="1" as="geometry">
                        <mxPoint x="1319" y="264.5" as="sourcePoint"/>
                        <mxPoint x="1368" y="275" as="targetPoint"/>
                    </mxGeometry>
                </mxCell>
                <mxCell id="R1ElPfqIBxvPQvqKOZJK-80" value="`" style="ellipse;whiteSpace=wrap;html=1;aspect=fixed;fillColor=light-dark(#FFFFFF,#FFFFFF);fontSize=11;" parent="1" vertex="1">
                    <mxGeometry x="1314" y="274.5" width="10" height="10" as="geometry"/>
                </mxCell>
                <mxCell id="R1ElPfqIBxvPQvqKOZJK-81" value="id" style="text;html=1;align=left;verticalAlign=middle;resizable=0;points=[];autosize=1;strokeColor=none;fillColor=none;" parent="1" vertex="1">
                    <mxGeometry x="1325" y="263.5" width="30" height="30" as="geometry"/>
                </mxCell>
                <mxCell id="R1ElPfqIBxvPQvqKOZJK-82" value="&lt;font style=&quot;vertical-align: inherit;&quot;&gt;&lt;font style=&quot;vertical-align: inherit;&quot;&gt;&lt;font style=&quot;vertical-align: inherit;&quot;&gt;&lt;font style=&quot;vertical-align: inherit;&quot;&gt;uses&lt;/font&gt;&lt;/font&gt;&lt;/font&gt;&lt;/font&gt;" style="shape=rhombus;perimeter=rhombusPerimeter;whiteSpace=wrap;html=1;align=center;fillColor=none;fontSize=11;" parent="1" vertex="1">
                    <mxGeometry x="1395" y="161" width="90" height="45" as="geometry"/>
                </mxCell>
                <mxCell id="R1ElPfqIBxvPQvqKOZJK-86" value="" style="endArrow=none;html=1;rounded=0;exitX=0.5;exitY=0;exitDx=0;exitDy=0;entryX=0;entryY=0.5;entryDx=0;entryDy=0;edgeStyle=orthogonalEdgeStyle;" parent="1" source="R1ElPfqIBxvPQvqKOZJK-17" target="R1ElPfqIBxvPQvqKOZJK-82" edge="1">
                    <mxGeometry width="50" height="50" relative="1" as="geometry">
                        <mxPoint x="1425.67" y="291.50000000000006" as="sourcePoint"/>
                        <mxPoint x="1472.5" y="90.34" as="targetPoint"/>
                    </mxGeometry>
                </mxCell>
                <mxCell id="R1ElPfqIBxvPQvqKOZJK-87" value="" style="endArrow=none;html=1;rounded=0;exitX=1;exitY=0.5;exitDx=0;exitDy=0;entryX=0.5;entryY=0;entryDx=0;entryDy=0;edgeStyle=orthogonalEdgeStyle;" parent="1" source="R1ElPfqIBxvPQvqKOZJK-18" target="R1ElPfqIBxvPQvqKOZJK-82" edge="1">
                    <mxGeometry width="50" height="50" relative="1" as="geometry">
                        <mxPoint x="1347" y="121" as="sourcePoint"/>
                        <mxPoint x="1455" y="83" as="targetPoint"/>
                    </mxGeometry>
                </mxCell>
                <mxCell id="R1ElPfqIBxvPQvqKOZJK-89" value="" style="endArrow=none;html=1;rounded=0;exitX=0;exitY=0.5;exitDx=0;exitDy=0;entryX=0.75;entryY=0;entryDx=0;entryDy=0;edgeStyle=orthogonalEdgeStyle;" parent="1" source="R1ElPfqIBxvPQvqKOZJK-21" target="g0mLWEBlBg2iRlSw4-VQ-21" edge="1">
                    <mxGeometry width="50" height="50" relative="1" as="geometry">
                        <mxPoint x="980" y="154.5" as="sourcePoint"/>
                        <mxPoint x="1088" y="193.5" as="targetPoint"/>
                    </mxGeometry>
                </mxCell>
                <mxCell id="R1ElPfqIBxvPQvqKOZJK-90" value="&lt;font style=&quot;vertical-align: inherit;&quot;&gt;&lt;font style=&quot;vertical-align: inherit;&quot;&gt;&lt;font style=&quot;vertical-align: inherit;&quot;&gt;&lt;font style=&quot;vertical-align: inherit;&quot;&gt;purchases&lt;/font&gt;&lt;/font&gt;&lt;/font&gt;&lt;/font&gt;" style="shape=rhombus;perimeter=rhombusPerimeter;whiteSpace=wrap;html=1;align=center;fillColor=none;fontSize=11;" parent="1" vertex="1">
                    <mxGeometry x="1412" y="222.5" width="99" height="45" as="geometry"/>
                </mxCell>
                <mxCell id="R1ElPfqIBxvPQvqKOZJK-91" value="(1,1)" style="text;html=1;align=center;verticalAlign=middle;resizable=0;points=[];autosize=1;strokeColor=none;fillColor=none;" parent="1" vertex="1">
                    <mxGeometry x="1261" y="199" width="50" height="30" as="geometry"/>
                </mxCell>
                <mxCell id="R1ElPfqIBxvPQvqKOZJK-92" value="(0,n)" style="text;html=1;align=center;verticalAlign=middle;resizable=0;points=[];autosize=1;strokeColor=none;fillColor=none;" parent="1" vertex="1">
                    <mxGeometry x="1337" y="117" width="50" height="30" as="geometry"/>
                </mxCell>
                <mxCell id="R1ElPfqIBxvPQvqKOZJK-93" value="" style="endArrow=none;html=1;rounded=0;entryX=0.5;entryY=1;entryDx=0;entryDy=0;exitX=0.5;exitY=0;exitDx=0;exitDy=0;" parent="1" source="U3JI14pHx9eP_fwrzk_K-33" target="R1ElPfqIBxvPQvqKOZJK-90" edge="1">
                    <mxGeometry width="50" height="50" relative="1" as="geometry">
                        <mxPoint x="1355" y="335.5" as="sourcePoint"/>
                        <mxPoint x="1493" y="334.5" as="targetPoint"/>
                    </mxGeometry>
                </mxCell>
                <mxCell id="R1ElPfqIBxvPQvqKOZJK-94" value="" style="endArrow=none;html=1;rounded=0;entryX=1;entryY=0.5;entryDx=0;entryDy=0;exitX=0;exitY=0.5;exitDx=0;exitDy=0;" parent="1" source="R1ElPfqIBxvPQvqKOZJK-90" target="R1ElPfqIBxvPQvqKOZJK-17" edge="1">
                    <mxGeometry width="50" height="50" relative="1" as="geometry">
                        <mxPoint x="1455" y="343.5" as="sourcePoint"/>
                        <mxPoint x="1456" y="290.5" as="targetPoint"/>
                    </mxGeometry>
                </mxCell>
                <mxCell id="R1ElPfqIBxvPQvqKOZJK-95" value="(0,n)" style="text;html=1;align=center;verticalAlign=middle;resizable=0;points=[];autosize=1;strokeColor=none;fillColor=none;" parent="1" vertex="1">
                    <mxGeometry x="1420" y="288.5" width="50" height="30" as="geometry"/>
                </mxCell>
                <mxCell id="R1ElPfqIBxvPQvqKOZJK-96" value="(0,1)" style="text;html=1;align=center;verticalAlign=middle;resizable=0;points=[];autosize=1;strokeColor=none;fillColor=none;" parent="1" vertex="1">
                    <mxGeometry x="1338" y="219.5" width="50" height="30" as="geometry"/>
                </mxCell>
                <mxCell id="bGUwdWJTmqN-AjFkrAUD-1" value="(0,1)" style="text;html=1;align=center;verticalAlign=middle;resizable=0;points=[];autosize=1;strokeColor=none;fillColor=none;fontSize=11;" parent="1" vertex="1">
                    <mxGeometry x="1497" y="305.5" width="50" height="30" as="geometry"/>
                </mxCell>
                <mxCell id="bGUwdWJTmqN-AjFkrAUD-3" value="&lt;font style=&quot;vertical-align: inherit;&quot;&gt;&lt;font style=&quot;vertical-align: inherit;&quot;&gt;birth_date&lt;/font&gt;&lt;/font&gt;" style="text;html=1;align=left;verticalAlign=middle;resizable=0;points=[];autosize=1;strokeColor=none;fillColor=none;fontSize=11;" parent="1" vertex="1">
                    <mxGeometry x="1549" y="350.5" width="70" height="30" as="geometry"/>
                </mxCell>
                <mxCell id="bGUwdWJTmqN-AjFkrAUD-4" value="(0,1)" style="text;html=1;align=center;verticalAlign=middle;resizable=0;points=[];autosize=1;strokeColor=none;fillColor=none;fontSize=10;" parent="1" vertex="1">
                    <mxGeometry x="1508" y="346.5" width="39" height="24" as="geometry"/>
                </mxCell>
                <mxCell id="2" value="&lt;font style=&quot;vertical-align: inherit;&quot;&gt;&lt;font style=&quot;vertical-align: inherit;&quot;&gt;(0,1)&lt;/font&gt;&lt;/font&gt;" style="text;html=1;align=center;verticalAlign=middle;resizable=0;points=[];autosize=1;strokeColor=none;fillColor=none;fontSize=10;rotation=90;" parent="1" vertex="1">
                    <mxGeometry x="1024" y="288.5" width="40" height="30" as="geometry"/>
                </mxCell>
                <mxCell id="3" value="&lt;font style=&quot;vertical-align: inherit;&quot;&gt;&lt;font style=&quot;vertical-align: inherit;&quot;&gt;(0,1)&lt;/font&gt;&lt;/font&gt;" style="text;html=1;align=center;verticalAlign=middle;resizable=0;points=[];autosize=1;strokeColor=none;fillColor=none;fontSize=10;rotation=90;" parent="1" vertex="1">
                    <mxGeometry x="1042" y="288.5" width="40" height="30" as="geometry"/>
                </mxCell>
            </root>
        </mxGraphModel>
    </diagram>
</mxfile>
